<?xml version="1.0" standalone="no"?>
<!DOCTYPE svg PUBLIC "-//W3C//DTD SVG 20010904//EN"
 "http://www.w3.org/TR/2001/REC-SVG-20010904/DTD/svg10.dtd">
<svg version="1.0" xmlns="http://www.w3.org/2000/svg"
 width="1280.000000pt" height="342.000000pt" viewBox="0 0 1280.000000 342.000000"
 preserveAspectRatio="xMidYMid meet">
<metadata>
Created by potrace 1.15, written by Peter Selinger 2001-2017
</metadata>
<g transform="translate(0.000000,342.000000) scale(0.100000,-0.100000)"
fill="#000000" stroke="none">
<path d="M515 3276 c-48 -21 -89 -60 -115 -112 -23 -46 -25 -61 -28 -218 -2
-122 0 -176 9 -193 10 -18 10 -26 1 -35 -16 -16 -15 -68 0 -68 9 0 9 -3 0 -12
-14 -14 -17 -184 -3 -192 14 -9 54 -10 74 -1 31 13 18 -13 -15 -29 -38 -20
-38 -20 -38 -1 0 8 -4 15 -9 15 -17 0 -23 -20 -11 -35 9 -10 9 -23 2 -43 -5
-15 -9 -100 -8 -188 1 -136 3 -158 16 -155 8 2 24 6 35 8 11 3 4 -4 -15 -15
l-35 -19 -2 -284 c-1 -179 1 -287 8 -295 7 -8 7 -14 -1 -19 -5 -3 -10 -37 -10
-75 0 -55 4 -71 17 -79 16 -9 16 -11 2 -28 -14 -15 -17 -47 -18 -180 -1 -155
-1 -163 20 -173 19 -11 46 -65 41 -84 -2 -4 3 -14 9 -22 15 -18 8 -25 -33 -33
l-33 -7 0 -189 0 -190 29 -52 c33 -60 60 -73 126 -61 25 5 55 10 68 12 13 3
29 9 36 15 9 8 18 7 31 -3 18 -13 18 -15 -10 -38 -16 -15 -25 -30 -21 -36 6
-9 186 -12 726 -12 611 1 723 3 747 15 34 18 95 19 111 3 10 -10 178 -13 770
-13 l757 0 -2 28 c-2 24 2 28 20 25 12 -2 28 -15 35 -30 l12 -26 482 -1 c324
-1 485 2 493 9 9 7 15 8 19 1 8 -12 1925 -15 1942 -3 7 4 14 18 15 32 l4 25
34 -33 34 -32 286 4 c157 2 291 4 296 4 6 0 85 -2 178 -5 147 -4 168 -2 173
12 6 14 7 14 18 0 9 -13 28 -15 90 -13 47 2 81 8 83 14 2 6 -12 23 -31 38 -44
33 -115 39 -144 13 -16 -15 -24 -16 -46 -6 -29 14 -35 48 -8 50 48 3 82 17 82
35 0 10 12 14 39 14 30 0 40 -4 44 -20 7 -26 33 -35 63 -22 30 14 33 56 4 74
-11 7 -20 18 -20 24 0 7 -7 15 -17 18 -9 4 -291 6 -627 6 l-611 -1 -49 -24
-50 -24 -30 22 -31 22 -2374 2 c-2228 3 -2376 2 -2393 -14 -11 -10 -17 -25
-14 -36 7 -27 -3 -47 -24 -47 -11 0 -22 -5 -25 -10 -4 -6 -23 -9 -43 -8 -25 2
-36 -1 -35 -9 3 -15 -21 -28 -68 -37 -51 -9 -57 14 -13 49 19 15 34 35 34 44
0 9 5 22 11 28 7 7 9 19 6 27 -5 13 -57 15 -389 18 -435 3 -422 1 -505 91 -59
64 -73 119 -73 287 0 124 -2 140 -21 164 -11 15 -17 31 -13 38 4 7 8 29 8 49
0 21 5 37 10 36 7 -1 12 60 14 181 l2 184 -29 -7 c-22 -5 -30 -2 -35 12 -11
27 -10 28 26 33 l33 5 3 98 c3 108 -4 118 -54 72 -15 -14 -31 -25 -36 -25 -15
0 -22 32 -10 51 7 10 12 25 12 32 0 22 46 42 63 29 8 -7 17 -9 20 -5 4 3 7
243 7 533 0 578 1 588 59 661 40 50 39 68 -4 59 -5 -1 -2 7 8 18 19 20 23 67
7 77 -17 10 -11 25 10 25 11 0 20 5 20 11 0 6 12 3 28 -6 36 -22 82 -6 82 27
0 13 4 30 9 37 12 19 -4 51 -25 51 -8 0 -13 4 -10 9 7 10 48 2 57 -11 7 -11
69 14 69 29 0 7 -4 13 -9 13 -5 0 -7 9 -4 20 5 19 0 20 -183 19 -132 0 -198
-4 -219 -13z m185 -46 c0 -23 6 -33 25 -42 29 -13 28 -32 -2 -34 -40 -2 -56
-13 -50 -35 5 -19 3 -20 -43 -14 -43 6 -49 5 -55 -15 -7 -24 7 -46 36 -55 32
-11 21 -25 -18 -23 -21 1 -51 -3 -68 -9 l-30 -10 1 51 c0 28 2 56 4 61 2 6 4
15 5 20 14 54 28 65 88 65 17 0 30 7 34 18 10 28 35 52 55 52 13 0 18 -8 18
-30z m-188 -1013 c28 -21 41 -43 33 -57 -8 -13 -55 2 -66 21 -5 11 -14 19 -19
19 -10 0 -50 36 -50 44 0 12 78 -9 102 -27z m-2 -227 c0 -9 -31 -30 -44 -30
-3 0 -6 7 -6 16 0 8 4 13 9 9 5 -3 12 -1 16 5 8 13 25 13 25 0z m20 -200 c0
-5 -5 -10 -11 -10 -5 0 -7 5 -4 10 3 6 8 10 11 10 2 0 4 -4 4 -10z m-54 -65
c5 -19 0 -30 -17 -45 -13 -10 -27 -19 -30 -20 -13 0 -3 66 11 77 22 18 29 16
36 -12z m84 -225 c0 -5 -5 -10 -11 -10 -7 0 -18 -8 -25 -17 -11 -15 -13 -16
-14 -2 0 8 5 20 12 27 15 15 38 16 38 2z m-100 -34 c0 -2 -9 -6 -20 -9 -11 -3
-20 -1 -20 4 0 5 9 9 20 9 11 0 20 -2 20 -4z m-15 -196 c-3 -5 -10 -10 -16
-10 -5 0 -9 5 -9 10 0 6 7 10 16 10 8 0 12 -4 9 -10z m112 -208 c15 -9 -19
-52 -41 -52 -22 0 -20 36 2 49 21 13 24 13 39 3z m6180 -714 c4 -7 6 -21 5
-30 -2 -10 3 -18 10 -18 8 0 14 -11 13 -26 0 -23 -5 -27 -36 -31 -33 -3 -38 0
-48 27 -18 54 29 120 56 78z m-4302 -68 c6 -19 -13 -60 -27 -60 -5 0 -8 12 -8
26 0 23 -3 25 -32 22 -23 -2 -36 -10 -43 -25 -5 -13 -16 -23 -24 -23 -9 0 -10
4 -4 13 5 6 17 24 26 39 14 22 23 26 61 26 35 0 46 -4 51 -18z m4755 -45 c0
-28 -15 -49 -29 -41 -6 4 -11 19 -11 34 0 21 5 28 20 28 14 0 20 -7 20 -21z
m-2980 -13 c0 -15 -2 -15 -10 -2 -13 20 -13 33 0 25 6 -3 10 -14 10 -23z
m-2350 -11 c0 -5 10 -12 23 -14 15 -4 13 -5 -7 -4 -27 2 -52 27 -27 27 6 0 11
-4 11 -9z"/>
<path d="M590 3168 c0 -7 7 -21 14 -30 25 -34 56 -14 34 22 -14 22 -48 28 -48
8z"/>
<path d="M1044 3275 c-3 -8 -3 -18 0 -23 3 -6 -3 -12 -14 -15 -17 -4 -19 -9
-10 -32 11 -28 10 -28 -28 -22 -46 8 -77 -10 -85 -50 -7 -36 -77 -78 -123 -75
-37 3 -55 -15 -47 -46 6 -26 23 -27 78 -7 33 12 161 14 777 15 l736 0 21 34
c16 26 27 33 47 30 35 -3 54 -22 35 -33 -44 -27 10 -31 453 -31 493 0 486 -1
472 54 -3 14 -2 28 4 31 5 3 10 21 10 40 0 43 6 46 59 34 37 -8 50 -6 84 11
35 19 42 20 55 6 8 -8 16 -29 17 -47 2 -26 1 -29 -7 -15 -8 14 -18 16 -56 10
-73 -10 -84 -19 -76 -60 5 -28 3 -34 -11 -34 -9 0 -15 -6 -12 -12 3 -10 167
-13 778 -13 l774 0 3 28 c3 25 6 28 32 22 18 -4 40 0 62 11 37 20 74 19 95 -2
11 -10 20 -11 33 -4 25 14 37 13 22 -2 -20 -20 -14 -47 11 -52 12 -3 85 -4
162 -2 77 2 149 3 160 3 11 0 137 0 280 1 143 1 279 2 303 1 193 -3 2708 -1
2745 2 57 6 76 26 48 50 -11 9 -21 27 -23 40 -2 17 -16 30 -45 44 -61 29 -55
65 10 65 14 0 28 -11 39 -30 14 -24 22 -29 40 -25 38 9 49 -6 37 -47 -5 -21
-16 -49 -24 -64 -8 -15 -12 -31 -9 -35 2 -4 219 -7 482 -6 381 2 476 5 474 15
-1 9 4 8 21 -3 20 -13 57 -15 223 -13 180 3 199 5 199 20 0 10 6 23 12 29 10
10 18 8 35 -8 13 -11 34 -26 47 -33 21 -11 26 -10 41 10 l17 23 6 -22 c5 -21
6 -21 389 -21 212 0 387 2 390 5 11 12 -6 57 -32 83 -31 31 -29 52 6 52 14 0
27 7 30 15 12 29 34 -5 34 -52 0 -29 7 -53 22 -73 l22 -30 295 0 296 0 60 -28
c61 -29 117 -83 138 -131 17 -41 38 -61 64 -61 49 0 83 -39 35 -40 -9 0 -29
-11 -44 -24 l-27 -24 -1 -411 c0 -406 0 -410 21 -421 11 -6 27 -9 36 -6 15 6
79 -19 89 -35 9 -16 -26 -69 -47 -69 -11 0 -22 -6 -25 -14 -5 -12 -9 -12 -31
-1 -15 8 -30 12 -35 9 -16 -10 -8 -73 10 -86 11 -7 22 -31 26 -52 7 -35 6 -38
-8 -27 -31 26 -36 2 -36 -188 0 -188 4 -211 37 -211 19 0 93 -34 93 -42 0 -8
-14 -10 -85 -12 l-40 -1 -3 -90 c-2 -49 0 -100 3 -112 6 -26 33 -31 41 -8 8
19 24 19 24 0 0 -8 9 -19 20 -25 11 -6 20 -17 20 -25 0 -7 5 -15 10 -17 6 -2
1 -14 -11 -27 -21 -22 -26 -23 -90 -9 -11 2 -15 -20 -19 -122 -4 -94 -10 -133
-23 -158 -31 -57 -90 -114 -142 -138 l-50 -24 -642 0 c-461 0 -649 -3 -667
-11 -19 -9 -29 -9 -39 -1 -10 8 -150 12 -485 11 -447 0 -474 -1 -518 -19 -46
-20 -46 -20 -72 0 -24 20 -38 21 -286 20 -162 -1 -265 -5 -273 -12 -8 -7 -28
-6 -63 1 -65 14 -197 14 -205 0 -4 -5 1 -19 11 -30 14 -16 15 -24 6 -44 -7
-14 -20 -25 -31 -25 -31 0 -51 -11 -51 -27 0 -21 39 -73 55 -73 7 0 16 -7 19
-16 5 -13 31 -15 188 -13 101 1 188 4 195 6 6 3 9 12 7 21 -5 15 -4 15 6 0 6
-9 17 -15 25 -11 9 3 22 0 29 -6 9 -8 44 -11 93 -9 71 3 78 5 81 25 4 25 68
78 77 63 3 -5 3 -21 -1 -35 -6 -22 -3 -25 22 -25 48 0 59 13 45 50 -6 18 -11
34 -11 36 0 2 12 -3 26 -11 14 -7 36 -33 48 -57 l21 -43 270 -1 c164 -1 275 3
283 9 19 15 15 47 -7 47 -25 0 -31 44 -13 83 11 22 18 26 40 20 14 -3 36 -11
48 -18 20 -10 21 -14 9 -47 -12 -36 -5 -58 17 -58 5 0 21 -9 36 -20 20 -15 39
-19 71 -17 45 3 66 22 37 33 -17 7 -21 29 -7 38 5 3 18 -11 28 -32 l20 -37
143 -3 142 -3 25 27 24 27 16 -22 c9 -14 21 -20 33 -16 10 3 21 1 25 -5 8 -14
82 -13 91 1 4 7 -4 20 -17 30 l-24 19 67 0 c61 0 70 -3 98 -30 28 -27 37 -30
98 -30 71 0 85 5 95 32 9 24 40 39 58 27 12 -8 11 -11 -3 -20 -24 -14 -23 -29
2 -29 11 0 20 4 20 10 0 5 7 7 15 4 8 -3 22 1 30 10 22 22 45 20 45 -3 0 -10
7 -22 16 -25 9 -3 179 -6 378 -6 294 0 373 3 421 15 101 27 173 85 200 164 13
38 15 135 15 653 0 562 -1 609 -17 615 -9 4 -19 1 -21 -5 -10 -32 -63 15 -55
48 6 22 33 26 50 9 7 -7 19 -9 27 -6 14 5 16 28 16 145 0 133 -1 140 -22 155
l-23 16 25 20 c20 16 23 22 12 33 -10 10 -17 10 -31 1 -20 -13 -31 -8 -31 13
0 7 15 14 33 16 26 2 33 8 35 30 2 17 -4 34 -17 47 -26 26 -27 47 -1 54 17 4
19 13 17 98 -2 87 -4 94 -22 94 -17 0 -19 -6 -17 -33 3 -30 2 -32 -16 -21 -31
19 -39 41 -30 76 7 25 15 33 46 40 l37 9 0 334 0 335 -27 46 c-31 52 -108 108
-174 127 -60 17 -198 16 -214 -3 -6 -8 -9 -19 -6 -24 7 -10 -22 -51 -36 -51
-4 0 -2 14 4 30 20 59 16 60 -171 60 -93 0 -172 -4 -175 -9 -10 -15 23 -66 46
-71 32 -8 33 -28 1 -36 -36 -8 -111 -43 -119 -55 -3 -5 -12 -9 -20 -9 -12 0
-12 3 -2 20 10 15 10 22 0 32 -6 6 -12 32 -12 56 0 31 -5 49 -17 58 -22 16
-218 19 -228 4 -3 -5 -17 -10 -30 -10 -13 0 -37 -11 -53 -25 l-30 -25 2 32 1
33 -235 3 c-129 1 -245 0 -257 -3 -13 -3 -38 -19 -56 -35 -43 -37 -88 -37 -97
0 -3 14 -12 25 -20 26 -8 0 -23 4 -32 8 -29 13 -63 3 -61 -17 1 -15 -3 -17
-20 -11 -12 4 -51 8 -87 10 -36 1 -79 5 -96 9 -29 6 -32 4 -37 -21 -3 -15 -1
-39 4 -52 6 -16 6 -29 -2 -38 -15 -19 -71 -14 -99 8 -19 16 -22 24 -17 62 5
34 3 45 -9 50 -9 3 -319 6 -690 6 -610 0 -677 -2 -700 -17 -26 -17 -74 -20
-96 -7 -7 5 -22 10 -33 12 -11 3 -388 6 -837 9 -785 4 -818 3 -818 -14 0 -10
6 -27 13 -38 8 -11 15 -37 15 -59 l1 -38 -42 7 c-23 5 -53 9 -67 10 -14 1 -38
8 -53 16 -25 11 -28 17 -24 43 3 17 7 40 9 51 3 20 -3 20 -795 23 l-797 2 -11
-24 c-13 -28 -32 -35 -75 -29 -18 3 -34 13 -39 26 l-10 22 -417 2 -417 2 -15
-31 c-21 -42 -20 -71 4 -93 24 -21 26 -37 5 -29 -18 7 -47 -14 -39 -27 9 -14
-15 -10 -41 7 -14 9 -25 24 -25 33 0 9 -15 23 -33 32 -17 9 -34 24 -36 35 -2
10 -8 22 -13 25 -5 3 -11 15 -12 25 -3 17 -12 19 -86 19 -86 0 -120 -17 -61
-30 34 -7 35 -9 21 -35 -8 -15 -16 -17 -46 -10 -19 5 -36 10 -37 12 -1 1 -9
17 -17 33 l-16 30 -194 0 c-185 0 -195 -1 -192 -19 3 -17 2 -17 -23 2 l-27 21
-1114 1 c-966 0 -1115 -2 -1120 -15z m9411 -45 c-5 -14 -2 -20 9 -20 18 0 21
-16 5 -26 -6 -3 -15 -1 -19 6 -4 7 -16 9 -29 5 -15 -4 -21 -2 -21 9 0 9 6 13
14 10 8 -3 19 3 26 15 14 27 23 27 15 1z m-4120 -16 c33 -22 32 -34 -4 -34
-20 0 -30 6 -34 19 -8 34 3 38 38 15z m-3425 -13 c0 -6 -5 -13 -11 -16 -6 -4
-8 -13 -5 -20 6 -17 -52 -29 -70 -14 -14 12 -9 33 6 24 4 -3 19 4 31 15 26 21
49 26 49 11z m6990 -80 c0 -4 -3 -11 -7 -14 -9 -9 -33 12 -33 30 0 11 4 11 20
3 11 -6 20 -14 20 -19z m-8603 -5 c4 -3 -3 -16 -15 -28 -17 -17 -24 -19 -36
-9 -8 7 -31 11 -52 9 -29 -2 -39 1 -42 14 -2 9 5 19 15 22 24 6 121 1 130 -8z
m3661 -21 c-3 -3 -9 2 -12 12 -6 14 -5 15 5 6 7 -7 10 -15 7 -18z m790 -3 c3
-16 -2 -22 -16 -22 -27 0 -33 10 -21 32 13 24 33 19 37 -10z m-2153 -12 c3 -5
16 -11 28 -11 17 -1 15 -3 -8 -8 -33 -8 -69 4 -60 20 8 12 32 12 40 -1z m8762
-426 c2 -6 -15 -18 -38 -27 -33 -13 -39 -20 -35 -35 4 -11 1 -24 -6 -29 -13
-10 -68 -15 -68 -6 0 12 65 83 77 83 7 0 13 7 13 16 0 18 51 16 57 -2z m-75
-594 c4 -27 3 -29 -21 -23 -34 8 -34 8 -26 32 10 33 42 27 47 -9z m45 -56 c-3
-3 -12 -4 -19 -1 -8 3 -5 6 6 6 11 1 17 -2 13 -5z m-7 -678 c0 -2 -3 -11 -6
-20 -5 -12 -9 -13 -25 -3 -26 16 -24 27 6 27 14 0 25 -2 25 -4z m-2084 -1003
c-10 -10 -19 5 -10 18 6 11 8 11 12 0 2 -7 1 -15 -2 -18z m-1166 -108 c-7 -9
-15 -13 -17 -11 -7 7 7 26 19 26 6 0 6 -6 -2 -15z"/>
<path d="M4040 3265 c0 -20 5 -25 24 -25 37 0 78 18 73 33 -2 6 -24 13 -50 15
-44 3 -47 2 -47 -23z"/>
<path d="M6747 3284 c-9 -10 2 -24 19 -24 8 0 14 7 14 15 0 15 -21 21 -33 9z"/>
<path d="M10090 3275 c-12 -14 -11 -18 1 -26 25 -16 64 -6 64 16 0 26 -46 33
-65 10z"/>
<path d="M822 2965 c-88 -38 -152 -124 -152 -202 l0 -43 45 0 c33 0 47 5 52
16 7 18 54 74 91 108 13 11 42 29 65 38 39 15 129 17 1094 17 638 1 1054 5
1058 10 3 5 1 13 -5 16 -6 4 -10 16 -8 28 l3 22 -397 3 c-324 2 -399 0 -410
-11 -11 -12 -16 -12 -26 0 -10 11 -121 13 -608 13 l-596 0 6 -27 6 -28 -23 28
c-21 25 -28 27 -92 27 -39 -1 -85 -7 -103 -15z"/>
<path d="M3099 2953 c-17 -45 -6 -53 70 -53 54 0 70 3 75 16 4 9 13 14 22 10
8 -3 27 2 41 11 15 10 37 16 50 15 15 -2 23 2 23 11 0 12 -24 15 -135 15
l-136 1 -10 -26z"/>
<path d="M3420 2965 c0 -8 5 -15 12 -15 9 0 9 -3 0 -12 -39 -39 -62 -38 1292
-38 l1305 0 21 30 c12 16 18 34 15 40 -4 6 -102 10 -266 10 -224 0 -259 -2
-259 -15 0 -21 -78 -20 -108 1 -18 12 -51 15 -179 13 -99 -2 -161 -6 -166 -13
-6 -8 -10 -7 -14 2 -6 16 -28 15 -43 -3 -11 -13 -15 -13 -33 0 -19 13 -128 15
-799 15 -685 0 -778 -2 -778 -15z"/>
<path d="M6250 2970 c0 -5 9 -14 20 -20 11 -6 20 -20 20 -30 0 -20 10 -20 539
-20 318 0 542 4 546 9 3 5 -12 23 -32 40 l-38 31 -527 0 c-333 0 -528 -4 -528
-10z"/>
<path d="M7397 2974 c-3 -4 -2 -15 3 -25 6 -10 9 -24 8 -31 -4 -19 44 -23 54
-4 11 20 62 21 78 1 11 -13 68 -15 414 -15 220 0 407 4 414 9 10 6 9 14 -4 39
l-15 32 -473 0 c-260 0 -476 -3 -479 -6z"/>
<path d="M8514 2955 c-13 -53 -6 -56 138 -53 82 2 132 7 131 13 -2 6 -13 10
-25 10 -26 0 -48 23 -41 42 4 10 -17 13 -96 13 -99 0 -101 0 -107 -25z"/>
<path d="M8912 2955 c-6 -14 -18 -25 -27 -25 -8 0 -15 -7 -15 -15 0 -14 28
-15 233 -11 127 2 246 6 262 9 17 2 33 5 38 6 4 0 7 15 7 32 l0 30 -82 -5
c-46 -3 -93 -8 -104 -11 -12 -4 -25 -2 -28 4 -5 7 -55 11 -140 11 -132 0 -133
0 -144 -25z"/>
<path d="M9570 2966 c0 -7 7 -19 15 -26 8 -7 15 -19 15 -26 0 -12 95 -14 586
-14 464 0 585 3 582 13 -3 6 -14 13 -25 15 -11 2 -25 14 -32 28 l-11 25 -390
-1 c-330 -1 -390 -4 -390 -16 0 -19 -26 -18 -34 1 -8 21 -316 23 -316 1z"/>
<path d="M10750 2964 c0 -13 8 -15 35 -12 19 2 35 1 35 -3 0 -15 88 -49 128
-49 44 0 59 21 25 35 -16 6 -15 8 5 16 52 20 19 29 -103 29 -108 0 -125 -2
-125 -16z"/>
<path d="M11020 2965 c0 -8 5 -15 10 -15 6 0 10 -11 10 -25 0 -25 0 -25 99
-25 80 0 100 3 105 16 5 14 8 14 28 0 19 -13 58 -16 225 -16 l203 0 0 25 c0
14 5 25 10 25 6 0 8 -10 5 -23 -6 -22 -2 -23 67 -33 40 -6 96 -22 123 -34 28
-13 59 -25 70 -27 82 -12 85 -14 91 -54 8 -47 30 -51 58 -12 19 26 19 26 -9
81 -57 108 -210 173 -159 68 12 -25 12 -28 1 -13 -8 9 -19 17 -25 17 -6 0 -21
14 -34 30 l-22 30 -286 0 c-193 0 -290 -4 -297 -11 -8 -8 -13 -8 -17 0 -5 7
-53 11 -132 11 -104 0 -124 -2 -124 -15z"/>
<path d="M12077 2714 c-4 -4 -7 -198 -7 -432 0 -392 1 -426 18 -438 13 -11 14
-15 4 -22 -7 -5 -10 -16 -7 -24 4 -9 2 -19 -4 -23 -7 -4 -11 -90 -11 -256 l0
-249 26 -10 c14 -6 30 -10 35 -10 5 0 9 212 9 539 0 536 0 540 -21 554 l-21
15 21 7 c20 6 21 13 21 181 l0 174 -28 0 c-16 0 -32 -3 -35 -6z"/>
<path d="M670 2603 c0 -47 5 -72 16 -85 16 -16 16 -18 0 -24 -20 -8 -23 -79
-3 -87 19 -7 65 3 77 18 7 8 10 52 8 111 l-3 99 -32 -2 c-24 -2 -33 2 -38 17
-13 41 -25 18 -25 -47z"/>
<path d="M2565 2630 c-8 -13 -4 -1139 5 -1340 9 -189 26 -250 88 -321 38 -42
92 -63 92 -35 0 7 7 13 15 13 24 0 17 -25 -12 -40 l-26 -14 36 -7 c21 -4 37
-13 37 -21 0 -7 20 6 45 31 29 28 45 38 45 27 0 -13 3 -13 15 -3 8 7 15 22 15
33 0 18 2 17 21 -7 11 -14 18 -30 15 -34 -3 -5 1 -18 9 -28 19 -25 19 -45 0
-38 -9 4 -15 0 -15 -10 0 -9 -4 -16 -10 -16 -13 0 -13 13 0 26 19 19 -16 39
-45 26 -33 -15 -31 -23 9 -50 55 -37 294 -70 311 -43 12 21 -38 48 -77 42 -5
0 -8 6 -8 14 0 9 -6 12 -17 8 -13 -5 -15 -2 -10 11 4 10 7 31 7 47 0 25 3 28
18 20 9 -5 29 -7 43 -4 19 3 33 -3 55 -24 38 -38 66 -49 62 -25 -1 9 1 18 5
20 19 6 27 -1 33 -33 7 -40 19 -51 38 -36 9 8 18 7 32 -4 27 -21 41 -19 114
16 110 52 181 123 231 229 33 71 39 211 39 923 l0 659 -153 -4 c-109 -2 -159
-7 -170 -16 -17 -14 -57 -8 -57 9 0 14 -127 11 -137 -3 -4 -7 -9 -132 -11
-277 -3 -255 -2 -264 15 -244 10 12 30 29 46 38 25 16 27 16 27 1 0 -9 8 -20
18 -23 9 -4 23 -13 30 -20 7 -7 28 -13 45 -14 18 -1 43 -4 57 -8 24 -7 24 -7
5 -19 -19 -11 -18 -12 12 -24 26 -10 50 -44 40 -55 -9 -8 -44 12 -52 30 -7 14
-19 22 -35 22 -15 0 -30 9 -37 22 -19 32 -66 39 -106 15 -17 -10 -40 -17 -49
-15 -17 4 -18 -19 -18 -388 0 -372 1 -391 18 -378 25 21 60 39 74 39 6 0 8 -3
4 -7 -3 -4 6 -12 21 -19 23 -10 24 -13 8 -13 -15 -1 -17 -3 -6 -10 10 -7 11
-13 2 -30 -15 -26 -31 -27 -31 -2 0 26 -17 36 -36 20 -12 -10 -12 -14 6 -26
21 -15 28 -39 8 -27 -10 6 -10 5 -1 -8 7 -8 10 -18 6 -21 -10 -11 -51 -8 -59
4 -9 16 -24 -10 -24 -43 0 -39 -32 -68 -75 -68 -43 0 -60 24 -69 97 -4 29 -7
348 -7 710 0 446 -3 652 -10 641 -8 -15 -13 -16 -32 -5 -30 16 -37 27 -37 60
0 17 5 27 15 27 8 0 15 4 15 9 0 5 10 12 23 14 12 2 -94 5 -235 6 -158 0 -259
-3 -263 -9z m225 -110 c0 -5 -7 -10 -16 -10 -8 0 -12 5 -9 10 3 6 10 10 16 10
5 0 9 -4 9 -10z m-50 -14 c0 -2 -7 -9 -15 -16 -13 -11 -14 -10 -9 4 5 14 24
23 24 12z m-12 -65 c18 -25 19 -31 7 -41 -18 -15 -45 -6 -45 15 0 8 -4 15 -10
15 -14 0 -12 27 3 33 21 9 23 8 45 -22z m654 3 c-2 -10 -6 -31 -9 -45 -3 -16
3 -40 17 -63 26 -47 21 -62 -20 -68 -41 -6 -63 15 -58 54 3 16 -1 33 -9 39 -7
6 -13 16 -13 22 0 6 -7 18 -15 27 -14 15 -14 18 1 30 13 12 17 11 25 -1 7 -12
9 -11 9 3 0 10 10 18 28 21 39 6 47 2 44 -19z m-497 -74 c4 -6 11 -8 16 -4 14
8 39 -15 39 -37 0 -23 -29 -39 -69 -39 -39 0 -43 9 -23 53 17 38 26 45 37 27z
m-45 -156 c11 -19 19 -24 36 -20 26 7 40 -19 22 -41 -10 -12 -14 -12 -28 7
l-16 21 -19 -21 c-17 -19 -19 -19 -37 -4 -21 20 -25 42 -3 24 13 -11 14 -8 11
19 -5 48 12 56 34 15z m700 -114 c0 -5 -5 -10 -11 -10 -5 0 -7 5 -4 10 3 6 8
10 11 10 2 0 4 -4 4 -10z m-42 -325 c6 -13 7 -27 2 -30 -5 -3 -5 -19 1 -37 10
-37 5 -46 -19 -32 -13 9 -20 7 -29 -5 -11 -14 -12 -13 -13 7 0 12 -5 22 -11
22 -8 0 -9 -14 -5 -44 6 -41 5 -44 -13 -39 -25 6 -35 36 -22 62 15 26 14 64
-1 79 -7 7 -8 12 -2 12 6 0 15 -5 22 -12 13 -13 42 6 42 28 0 24 36 15 48 -11z
m-425 -77 c8 -5 6 -8 -5 -8 -20 0 -34 42 -21 62 5 9 9 4 11 -17 2 -16 9 -33
15 -37z m-66 -83 c20 -8 38 -13 41 -10 8 8 32 -16 32 -32 0 -10 -6 -12 -20 -8
-13 4 -22 1 -26 -9 -5 -13 -10 -13 -40 1 -19 9 -34 20 -34 25 0 4 -7 8 -17 8
-14 0 -14 2 2 20 22 24 17 24 62 5z m-149 -17 c14 -14 16 -32 3 -23 -5 3 -12
1 -16 -5 -3 -5 0 -10 7 -10 17 0 41 -37 33 -51 -4 -5 -10 -7 -15 -4 -18 11
-51 -15 -45 -36 4 -11 0 -25 -8 -33 -12 -12 -18 -10 -40 14 -35 37 -36 76 -2
84 21 5 24 11 19 31 -3 13 -3 29 1 34 8 15 48 14 63 -1z m49 -50 c-3 -8 -6 -5
-6 6 -1 11 2 17 5 13 3 -3 4 -12 1 -19z m-16 -121 c-13 -13 -26 -3 -16 12 3 6
11 8 17 5 6 -4 6 -10 -1 -17z m624 -298 c11 -17 0 -20 -21 -4 -17 13 -17 14
-2 15 9 0 20 -5 23 -11z m-42 -43 c1 -5 -11 -10 -26 -10 -26 -2 -27 0 -11 11
19 14 34 13 37 -1z m80 0 c4 -10 1 -13 -9 -9 -15 6 -19 23 -5 23 5 0 11 -7 14
-14z m-246 -111 c3 -9 3 -19 -1 -22 -7 -7 -36 16 -36 28 0 15 30 10 37 -6z"/>
<path d="M3990 1725 l0 -915 260 0 260 0 0 238 0 239 -28 -2 c-16 -1 -33 -4
-38 -7 -15 -10 -46 19 -42 38 2 11 18 23 38 29 67 19 69 23 72 115 l3 85 100
3 c55 1 104 7 109 12 5 5 16 5 27 -1 25 -13 158 15 219 46 63 32 116 93 134
156 21 71 20 96 -4 102 -11 3 -18 1 -14 -4 9 -15 -13 -10 -26 6 -6 8 -9 19 -5
25 8 13 35 13 35 0 0 -19 17 -10 28 15 7 15 12 77 12 150 l0 125 -32 -7 c-26
-5 -30 -3 -25 9 3 9 1 20 -5 26 -6 6 -7 22 -3 39 5 15 7 34 6 41 -1 6 3 12 9
12 5 0 10 5 10 10 0 6 -7 10 -16 8 -21 -4 -30 47 -13 68 9 11 8 14 -2 14 -8
-1 -23 -11 -33 -24 l-19 -23 -21 22 c-12 12 -33 30 -48 40 -30 19 -37 45 -13
45 8 0 22 -8 32 -18 10 -10 27 -24 37 -32 18 -14 19 -13 13 3 -3 9 -2 17 3 17
6 0 10 7 10 15 0 9 6 12 15 9 8 -4 15 -10 15 -14 0 -13 44 -79 53 -80 12 0 8
23 -13 68 -38 84 -87 128 -179 163 -80 30 -141 40 -141 23 0 -7 5 -16 10 -19
16 -10 11 -22 -12 -30 -49 -15 -53 -15 -53 10 0 14 6 25 13 25 6 0 12 6 12 14
0 22 -73 26 -423 26 l-327 -1 0 -914z m236 869 c-3 -9 -6 -20 -6 -25 0 -11
-11 -11 -29 0 -12 8 -12 12 -2 25 18 21 45 21 37 0z m464 -24 c0 -5 0 -13 0
-17 -1 -9 -49 -5 -64 5 -11 6 20 20 47 21 9 1 17 -3 17 -9z m-220 -155 c0 -16
6 -25 15 -25 8 0 15 5 15 10 0 6 5 10 11 10 10 0 10 -15 -2 -60 -3 -10 11 -16
55 -22 76 -10 103 -28 113 -75 12 -55 8 -303 -5 -335 -15 -36 -63 -60 -115
-56 l-42 3 -3 216 -2 217 -39 43 c-46 50 -56 75 -33 89 26 15 32 12 32 -15z
m324 -122 c14 -19 16 -28 8 -31 -7 -2 -19 -10 -26 -18 -14 -14 -46 -9 -46 6 0
5 7 15 15 24 8 8 12 22 9 30 -10 26 19 18 40 -11z m194 -6 c8 -10 6 -16 -9
-26 -25 -15 -30 -12 -22 17 6 25 16 28 31 9z m-143 -48 c11 -17 -1 -21 -15 -4
-8 9 -8 15 -2 15 6 0 14 -5 17 -11z m51 -26 c-11 -11 -17 4 -9 23 7 18 8 18
11 1 2 -10 1 -21 -2 -24z m-481 -33 c13 -14 15 -24 8 -31 -8 -8 -17 -4 -32 12
-11 13 -21 26 -21 31 0 15 27 8 45 -12z m505 -22 c0 -13 -23 -5 -28 10 -2 7 2
10 12 6 9 -3 16 -11 16 -16z m133 -35 c3 -15 1 -36 -4 -46 -6 -9 -7 -22 -4
-27 4 -6 -1 -13 -9 -16 -9 -3 -16 -12 -16 -19 0 -26 20 -26 43 -1 33 35 51 19
48 -41 -1 -28 -27 -30 -36 -3 -7 23 -28 26 -47 7 -7 -8 -20 -16 -28 -19 -9 -3
-15 -17 -15 -33 0 -49 -58 -61 -74 -14 -4 12 -2 12 13 0 22 -19 36 -4 29 32
-6 30 -30 47 -42 30 -13 -19 -56 -43 -78 -43 -26 0 -54 36 -46 57 5 12 1 14
-17 8 -31 -10 -43 12 -23 42 18 27 38 26 38 -2 0 -10 8 -23 18 -29 14 -9 21
-7 31 7 16 21 45 22 71 3 11 -8 26 -11 34 -8 10 4 12 1 6 -7 -6 -10 -3 -11 11
-2 47 26 47 26 28 62 -9 19 -26 40 -36 47 -24 17 -7 42 28 42 12 0 26 5 29 10
11 17 42 -7 48 -37z m-834 -455 c10 -24 51 -64 51 -49 0 12 33 9 42 -4 13 -18
9 -22 -23 -22 -18 0 -37 -7 -44 -17 -11 -15 -13 -15 -19 0 -3 8 -6 26 -6 38 0
12 -7 31 -15 42 -17 23 -19 34 -5 34 6 0 14 -10 19 -22z m42 -157 c-8 -6 -12
-18 -8 -32 8 -32 -23 -69 -57 -69 -16 0 -26 6 -26 14 0 8 -6 17 -12 19 -8 4
-4 8 10 12 12 4 22 14 22 22 0 9 8 13 23 11 15 -2 22 2 21 12 -1 9 8 17 20 18
15 1 17 -1 7 -7z m-145 -48 c-7 -7 -26 7 -26 19 0 6 6 6 15 -2 9 -7 13 -15 11
-17z m257 -153 c5 -4 -4 -14 -20 -22 -15 -7 -28 -20 -28 -27 0 -23 -23 -24
-30 -2 -3 11 -19 25 -35 32 -16 8 -26 17 -23 22 2 4 12 2 20 -5 13 -11 18 -10
27 5 8 13 19 16 46 11 19 -4 39 -10 43 -14z m87 -95 c0 -3 -9 -5 -20 -5 -21 0
-40 27 -32 49 3 10 11 6 28 -12 13 -15 24 -29 24 -32z"/>
<path d="M5328 2620 c18 -20 52 -19 52 1 0 21 18 7 23 -18 4 -21 0 -32 -15
-44 -17 -13 -18 -20 -9 -37 17 -32 13 -52 -13 -62 -13 -5 -27 -14 -31 -19 -3
-6 -17 -11 -31 -11 l-24 0 0 -344 c0 -335 0 -344 20 -349 26 -7 26 -37 0 -37
-19 0 -19 -9 -19 -444 l0 -445 154 0 c151 -1 155 -1 155 19 0 16 5 20 19 15
27 -8 52 5 47 24 -9 27 8 43 21 22 10 -15 8 -23 -12 -41 -14 -13 -22 -27 -19
-31 3 -5 114 -9 247 -9 326 1 430 20 518 98 37 33 77 97 67 107 -11 12 -47
-15 -42 -30 4 -9 0 -15 -8 -15 -12 0 -38 41 -52 82 -7 23 -34 23 -59 1 -18
-17 -19 -17 -33 2 -11 14 -14 15 -14 4 0 -22 -32 -19 -38 3 -2 10 -11 18 -18
18 -8 0 -14 6 -14 14 0 8 -5 16 -12 18 -7 3 -8 10 -4 17 8 13 26 12 99 -7 21
-6 37 -6 37 -1 0 5 7 9 15 9 8 0 15 5 15 11 0 5 6 7 13 3 6 -4 2 4 -10 18 -30
32 -29 42 1 22 14 -8 27 -15 30 -15 41 6 59 -1 69 -29 15 -40 43 -39 51 1 3
17 6 207 6 421 0 381 0 389 -19 378 -11 -5 -29 -10 -40 -10 -24 0 -52 36 -44
57 5 12 1 14 -17 8 -29 -9 -42 10 -27 42 13 29 35 30 39 2 2 -12 11 -27 21
-33 14 -9 21 -7 32 7 7 10 21 17 32 15 15 -3 18 5 21 56 2 33 -1 109 -6 171
-11 125 -35 187 -96 249 -41 41 -96 71 -96 52 0 -8 -12 -11 -35 -8 -40 5 -46
17 -12 26 l22 7 -25 10 c-81 34 -169 41 -558 45 l-394 5 20 -21z m518 -27 c-3
-8 -6 -19 -6 -24 0 -12 -27 -12 -35 1 -9 14 17 49 32 43 8 -3 12 -12 9 -20z
m239 -173 c-8 -24 22 -40 35 -19 7 11 10 10 16 -4 3 -9 1 -24 -6 -33 -10 -11
-10 -18 -2 -26 17 -17 15 -28 -6 -28 -11 0 -32 20 -52 51 -32 50 -32 52 -15
65 27 20 37 17 30 -6z m-365 -87 c0 -16 -16 -30 -37 -35 -28 -7 -32 16 -5 31
20 12 42 14 42 4z m219 -24 c22 -14 41 -57 41 -94 0 -16 6 -21 21 -21 12 1 28
-9 36 -21 20 -29 0 -40 -27 -13 -11 11 -22 20 -25 20 -11 0 -5 -859 5 -865 7
-4 8 -11 1 -18 -5 -7 -12 -34 -16 -62 -4 -27 -12 -58 -17 -68 -12 -24 -68 -47
-113 -47 l-35 0 0 140 c0 83 -4 140 -10 140 -5 0 -18 10 -29 22 -22 23 -29 21
-127 -24 -22 -10 -35 -2 -71 43 -17 21 1 76 27 84 11 3 17 11 14 18 -2 7 7 17
20 23 21 10 27 8 45 -17 12 -15 21 -30 21 -33 0 -2 13 -18 28 -34 26 -27 31
-29 53 -18 28 14 28 4 29 540 l0 329 54 -6 c29 -3 63 -11 75 -18z m468 -11
c26 -25 29 -38 8 -38 -7 0 -18 -7 -23 -17 -6 -10 -16 -14 -26 -10 -18 7 -22
32 -6 42 6 3 10 15 10 26 0 25 8 24 37 -3z m57 -69 c-6 -11 -24 -2 -24 11 0 5
7 7 15 4 8 -4 12 -10 9 -15z m-824 -32 c0 -19 -10 -27 -26 -20 -11 4 -12 9 -3
19 15 18 29 18 29 1z m-207 -80 c22 -47 35 -52 81 -33 45 19 47 5 4 -26 -57
-40 -78 -49 -98 -38 -15 8 -21 5 -32 -20 -7 -17 -16 -30 -20 -30 -12 0 -9 12
7 30 20 22 10 101 -10 94 -9 -4 -13 5 -12 31 1 34 3 36 31 33 25 -2 35 -11 49
-41z m213 -202 c0 -22 -13 -45 -27 -45 -4 0 -7 16 -6 35 1 26 6 35 17 33 8 -2
15 -12 16 -23z m-2 -181 c9 -3 16 -12 16 -19 0 -18 -61 -85 -77 -85 -7 0 -13
-7 -13 -15 0 -8 -7 -15 -15 -15 -19 0 -19 10 1 38 8 12 20 20 25 17 5 -4 9 0
9 8 0 14 29 77 35 77 2 0 10 -3 19 -6z m720 -201 c-4 -15 -12 -20 -26 -18 -33
7 -34 15 -8 35 28 22 42 15 34 -17z m-49 -43 c10 -12 25 -18 32 -16 7 3 15 1
18 -4 4 -6 -3 -10 -14 -10 -27 0 -27 -20 -1 -27 13 -3 20 -14 20 -29 0 -30
-12 -36 -55 -28 l-35 6 0 64 c0 68 6 76 35 44z m-158 -129 c3 -11 16 -22 29
-25 20 -5 23 -11 18 -31 -4 -18 -1 -27 10 -31 9 -3 14 -10 11 -14 -6 -10 -42
-2 -70 16 -17 10 -57 12 -90 4 -23 -6 -43 1 -49 16 -9 23 9 41 47 50 17 3 37
13 45 20 19 20 43 17 49 -5z m95 7 c-17 -17 -15 -28 5 -28 13 0 14 -3 6 -11
-7 -7 -19 -9 -27 -6 -13 5 -16 24 -7 55 1 1 9 2 18 2 13 0 14 -3 5 -12z m-842
-54 c0 -6 -6 -14 -14 -17 -10 -4 -15 4 -18 24 -3 16 -2 32 1 35 7 7 31 -26 31
-42z m670 -100 c0 -2 -11 -4 -24 -4 -23 0 -42 32 -30 52 5 8 54 -36 54 -48z
m190 -206 c0 -6 -6 -5 -15 2 -8 7 -15 14 -15 16 0 2 7 1 15 -2 8 -4 15 -11 15
-16z m-693 -104 c6 -14 9 -32 6 -40 -6 -16 -33 -19 -33 -5 0 6 -12 16 -27 23
-30 14 -29 31 1 35 11 2 22 6 25 8 9 10 16 4 28 -21z m-147 -39 c0 -8 -2 -15
-4 -15 -2 0 -6 7 -10 15 -3 8 -1 15 4 15 6 0 10 -7 10 -15z"/>
<path d="M5646 1534 c-4 -10 1 -22 11 -29 23 -17 26 -14 14 19 -12 30 -17 32
-25 10z"/>
<path d="M6855 2608 c-10 -62 -45 -309 -45 -324 0 -7 9 -14 19 -14 10 0 21 -6
24 -14 7 -19 -20 -56 -42 -56 -14 0 -20 -19 -35 -128 -16 -119 -15 -188 4
-177 4 2 5 16 2 30 -5 28 4 31 31 11 29 -22 22 -61 -15 -79 -17 -8 -36 -13
-43 -11 -8 3 -21 -64 -43 -213 -18 -120 -32 -221 -32 -224 0 -4 14 -9 30 -12
34 -7 40 -31 11 -47 -25 -13 -44 -13 -36 0 3 6 1 10 -4 10 -6 0 -12 -10 -13
-22 -7 -100 -7 -98 17 -98 23 0 49 22 39 33 -4 3 -3 14 1 24 7 15 9 13 14 -12
4 -17 2 -33 -4 -38 -6 -5 -4 -12 8 -21 9 -7 17 -18 17 -23 0 -5 16 -17 35 -26
41 -20 44 -30 10 -45 -19 -9 -25 -9 -25 1 0 6 -5 4 -11 -6 -5 -9 -7 -22 -3
-29 5 -8 2 -9 -12 -4 -10 5 -27 11 -36 13 -10 3 -18 10 -18 15 0 5 -10 6 -21
3 -12 -4 -19 -3 -16 2 6 10 -9 40 -16 33 -3 -3 -15 -70 -26 -150 -12 -80 -24
-157 -27 -172 l-6 -28 276 0 c256 0 276 1 276 18 0 9 7 80 15 157 8 77 15 143
15 148 0 4 42 7 94 7 l94 0 6 -28 c2 -15 7 -67 11 -117 3 -49 8 -111 11 -138
l6 -47 269 0 c283 0 278 -1 260 44 -7 18 -8 18 -14 2 -6 -16 -9 -16 -35 3 -26
18 -28 24 -23 58 5 29 11 39 29 41 24 4 26 14 16 74 -5 27 -12 38 -24 38 -10
0 -23 7 -30 15 -7 8 -9 15 -4 15 5 0 -2 7 -14 16 -17 12 -22 24 -20 47 2 27 8
33 31 35 15 2 27 9 27 15 0 7 -14 104 -32 216 -28 174 -35 205 -51 209 -13 3
-16 9 -10 21 12 24 7 129 -7 145 -9 12 -18 10 -56 -16 -45 -30 -74 -32 -74 -4
0 8 -6 19 -14 23 -12 6 -12 11 -2 25 10 13 20 15 50 8 23 -5 49 -4 67 2 24 8
27 14 23 36 -19 101 -117 676 -121 715 l-5 47 -291 -2 -291 -3 -6 -24 c-5 -21
-7 -22 -19 -8 -7 9 -10 21 -6 27 4 6 -21 10 -74 10 l-80 0 -6 -32z m545 -129
c0 -6 -7 -17 -16 -26 -21 -21 -43 -1 -24 22 14 17 40 20 40 4z m-192 -44 c13
-4 22 -2 22 4 0 6 14 11 30 11 23 0 30 -5 30 -19 0 -20 -61 -56 -92 -53 -20 1
-48 -34 -48 -60 0 -26 -36 -58 -65 -58 -36 0 -34 42 3 69 25 19 26 21 10 37
-16 16 -15 19 20 51 20 18 43 31 51 29 9 -3 26 -7 39 -11z m97 -35 c-3 -5 -12
-10 -18 -10 -7 0 -6 4 3 10 19 12 23 12 15 0z m340 -10 c3 -5 2 -10 -4 -10 -5
0 -13 5 -16 10 -3 6 -2 10 4 10 5 0 13 -4 16 -10z m-455 -102 c0 -35 -14 -66
-22 -52 -8 14 3 84 13 84 5 0 9 -15 9 -32z m42 -85 c15 -14 21 -14 27 -4 5 8
11 -11 15 -49 5 -40 14 -68 27 -81 18 -18 18 -19 0 -19 -21 0 -22 21 18 -343
15 -131 24 -240 22 -243 -6 -6 -167 -5 -173 1 -6 7 16 207 52 468 l31 219 -26
20 c-14 10 -25 26 -25 34 0 19 9 18 32 -3z m-103 -94 c10 -28 9 -29 -20 -29
-17 0 -32 -6 -36 -15 -8 -21 -1 -26 38 -27 19 -1 28 -3 22 -5 -7 -3 -13 -11
-13 -18 0 -7 -7 -16 -16 -19 -24 -9 -85 4 -91 19 -7 19 15 55 32 55 15 0 20
17 16 54 0 10 4 25 10 33 10 11 15 11 30 -3 10 -9 22 -29 28 -45z m-223 -10
c41 -25 37 -53 -8 -44 -17 4 -35 2 -43 -5 -19 -16 -41 -7 -48 20 -4 16 -1 24
14 27 10 3 19 9 19 14 0 15 31 10 66 -12z m451 4 c2 -6 -4 -13 -13 -17 -21 -8
-26 -3 -18 18 7 18 25 17 31 -1z m132 -76 c12 -16 5 -27 -18 -27 -9 0 -25 -8
-36 -16 -19 -14 -19 -16 -2 -25 20 -12 23 -35 5 -43 -7 -3 -2 -3 12 0 22 4 29
-1 49 -36 13 -23 30 -44 37 -47 8 -3 22 -22 30 -42 12 -28 17 -33 24 -21 5 8
10 13 11 10 8 -41 8 -62 0 -83 l-10 -26 -40 20 c-35 17 -68 53 -63 69 1 3 -1
5 -5 6 -33 4 -71 49 -88 105 -4 13 -12 30 -18 37 -6 7 -12 24 -13 37 -2 19 5
28 37 42 28 13 38 23 35 36 -5 21 36 24 53 4z m-554 -27 c4 -6 -6 -10 -22 -10
-22 0 -25 2 -13 10 19 12 27 12 35 0z m20 -170 c4 -6 11 -8 16 -5 19 12 49 -6
49 -30 0 -26 -15 -41 -25 -25 -12 19 -25 10 -25 -16 0 -24 -2 -25 -17 -13 -15
12 -16 12 -10 -3 9 -26 0 -22 -34 12 -34 33 -33 58 3 76 31 15 36 16 43 4z
m117 -185 c18 -46 8 -70 -17 -44 -16 18 -35 75 -28 83 15 15 30 2 45 -39z
m-136 8 c1 -10 4 -26 9 -35 5 -13 3 -18 -9 -18 -9 0 -25 -6 -36 -12 -17 -11
-22 -10 -29 1 -11 18 -2 51 14 51 7 0 15 7 19 15 8 21 32 19 32 -2z m-30 -100
c-10 -10 -19 5 -10 18 6 11 8 11 12 0 2 -7 1 -15 -2 -18z m96 13 c27 -12 9
-29 -23 -22 -34 7 -37 0 -8 -25 l21 -18 -36 -15 c-35 -15 -66 -13 -66 4 0 5
12 17 28 28 22 17 25 23 15 33 -7 7 -13 16 -13 19 0 9 61 6 82 -4z m552 -258
l6 -23 20 25 c15 20 21 23 32 12 9 -9 9 -15 2 -20 -6 -4 -10 -24 -9 -45 1 -23
-5 -47 -15 -60 -10 -12 -18 -33 -18 -47 0 -62 -2 -72 -16 -67 -9 3 -21 -4 -30
-19 -18 -26 -36 -32 -36 -11 0 6 -18 25 -40 41 -39 29 -54 66 -26 66 8 0 21 3
30 6 10 4 19 -3 27 -20 14 -30 25 -32 50 -10 14 12 16 22 9 40 -5 13 -7 24 -4
24 4 0 -8 13 -25 29 -37 34 -38 47 -9 78 27 29 44 29 52 1z m-114 -65 c0 -13
-3 -13 -15 -3 -8 7 -12 16 -9 21 8 13 24 1 24 -18z m-40 -49 c0 -14 -4 -23
-10 -19 -5 3 -10 15 -10 26 0 10 5 19 10 19 6 0 10 -12 10 -26z m-230 1 c0 -9
-12 -20 -27 -26 -16 -6 -41 -24 -56 -41 -23 -25 -31 -28 -38 -17 -17 27 -9 45
26 59 19 7 36 19 39 27 8 19 56 17 56 -2z m-245 -253 c15 -10 13 -84 -2 -89
-8 -3 -13 4 -13 16 0 12 -6 21 -15 21 -8 0 -15 -7 -15 -16 0 -25 -23 -10 -25
16 -3 36 44 71 70 52z m893 -44 c10 -27 9 -35 -3 -48 -11 -11 -20 -12 -32 -4
-19 12 -27 65 -10 76 22 14 32 8 45 -24z"/>
<path d="M7937 2633 c-4 -3 -7 -69 -7 -145 0 -116 2 -138 15 -138 8 0 15 -9
15 -20 0 -11 -7 -20 -15 -20 -9 0 -12 -6 -9 -15 5 -11 22 -15 69 -15 57 0 67
3 96 30 36 32 42 32 44 -3 1 -19 9 -23 51 -27 l49 -5 3 -338 c2 -265 5 -337
15 -331 9 5 9 4 0 -7 -9 -9 -13 -61 -13 -181 0 -166 0 -169 20 -158 16 8 20 8
20 -4 0 -11 6 -13 28 -7 15 4 32 6 38 4 6 -2 17 3 24 12 28 33 89 1 74 -40 -4
-9 0 -15 9 -15 19 0 30 -30 20 -55 -5 -14 -3 -17 10 -12 9 3 17 2 17 -3 0 -14
47 -12 56 1 4 7 -1 16 -10 21 -9 5 -16 13 -16 19 0 5 9 4 19 -3 24 -15 55 6
48 33 -3 10 1 26 9 37 7 11 11 22 7 25 -3 4 0 13 6 21 7 8 10 20 6 26 -8 12 5
13 24 1 9 -6 11 -18 7 -35 -5 -19 -2 -26 8 -26 7 0 17 11 20 25 4 14 11 23 17
19 5 -3 8 -11 6 -17 -2 -7 4 -31 15 -55 22 -54 22 -55 -2 -49 -10 3 -25 -2
-31 -9 -7 -8 -19 -13 -28 -12 -9 2 -32 -13 -53 -34 -20 -20 -56 -43 -79 -49
-44 -14 -51 -10 -85 47 -16 26 -42 11 -50 -30 -5 -29 -11 -36 -29 -36 -12 0
-28 7 -35 15 -14 16 -40 20 -40 6 0 -14 -38 -20 -44 -7 -2 6 -5 1 -5 -10 -1
-14 7 -24 19 -27 23 -6 17 -37 -6 -37 -11 0 -14 -20 -14 -95 l0 -95 265 0 265
0 0 85 c0 75 -2 85 -18 85 -10 0 -19 8 -20 18 -1 9 -3 26 -4 37 -2 16 2 19 20
17 l23 -3 -1 631 -2 632 22 23 c30 32 61 39 67 14 3 -10 9 -19 14 -19 5 0 9
-5 9 -11 0 -5 -4 -7 -10 -4 -5 3 -10 -3 -10 -14 0 -20 6 -21 110 -21 l110 0 0
34 c0 25 -8 43 -30 64 -35 35 -35 36 -14 57 12 12 19 13 30 4 12 -10 14 5 14
95 l0 106 -335 0 c-325 0 -335 -1 -335 -19 0 -26 17 -35 56 -33 40 3 47 -7 31
-41 -11 -23 -17 -26 -54 -23 -47 4 -50 1 -29 -20 8 -7 12 -23 9 -34 -3 -12 -8
-18 -11 -15 -3 2 -11 0 -17 -5 -9 -7 -16 -6 -25 5 -7 8 -10 15 -6 15 4 0 0 10
-8 23 -15 24 -14 76 2 86 18 11 9 61 -10 61 -14 0 -16 -6 -12 -29 4 -20 2 -30
-11 -34 -9 -4 -14 -3 -11 1 3 4 -4 13 -14 20 -17 10 -20 9 -26 -13 -7 -28 -30
-50 -38 -37 -3 5 2 21 10 37 24 46 7 55 -109 55 -87 0 -98 -2 -82 -13 21 -16
13 -37 -15 -37 -11 0 -20 10 -24 25 -5 21 -12 25 -45 25 -21 0 -41 -3 -44 -7z
m1063 -33 c0 -11 -4 -20 -10 -20 -5 0 -10 2 -10 4 0 2 -3 11 -6 20 -4 11 -1
16 10 16 9 0 16 -8 16 -20z m-207 -64 c4 -9 14 -12 26 -9 17 4 21 1 21 -20 0
-36 -16 -42 -35 -13 -12 18 -25 24 -53 24 -36 0 -36 0 -12 -13 22 -12 23 -14
8 -20 -33 -13 -81 -10 -86 4 -3 10 2 13 21 9 19 -4 27 0 30 14 8 30 71 49 80
24z m-688 -53 c0 -12 4 -25 8 -29 10 -10 39 17 33 33 -8 20 11 16 19 -4 28
-64 -3 -108 -70 -99 -62 7 -105 35 -105 69 0 33 6 34 31 5 10 -13 18 -18 19
-11 0 6 -4 14 -10 18 -5 3 -7 12 -4 20 4 8 9 13 13 11 4 -3 13 0 21 5 23 14
45 6 45 -18z m729 -39 c3 -8 2 -12 -4 -9 -6 3 -10 10 -10 16 0 14 7 11 14 -7z
m46 -29 c0 -17 -2 -18 -25 -9 -13 5 -14 8 -3 15 19 13 28 11 28 -6z m-236 -38
c10 -7 17 -21 15 -30 -4 -16 -6 -16 -26 -2 -13 9 -23 23 -23 31 0 18 11 18 34
1z m-271 -129 c-7 -41 -6 -40 -26 -25 -22 16 -12 57 14 57 15 0 17 -5 12 -32z
m3 -115 c-4 -9 -1 -20 6 -25 21 -13 28 -9 28 12 0 23 4 24 31 10 21 -12 26
-49 7 -51 -7 -1 -30 -1 -50 0 -27 2 -38 -1 -38 -12 0 -7 -8 -23 -18 -34 -16
-19 -20 -20 -45 -7 -15 8 -27 18 -27 22 1 13 27 42 38 42 6 0 20 14 32 30 23
32 46 41 36 13z m190 -178 c-9 -36 0 -45 28 -32 17 8 21 15 15 23 -7 8 -2 12
15 12 29 0 69 -34 60 -50 -5 -7 -2 -9 8 -5 11 4 17 -2 21 -19 3 -16 0 -24 -9
-24 -8 0 -14 7 -14 15 0 8 -4 15 -10 15 -5 0 -10 -8 -10 -17 0 -33 -17 -45
-64 -48 -42 -3 -48 -1 -72 31 -25 32 -26 36 -10 53 9 9 16 24 16 32 0 14 18
39 28 39 2 0 1 -11 -2 -25z m174 -114 c0 -6 -4 -13 -10 -16 -5 -3 -10 1 -10 9
0 9 5 16 10 16 6 0 10 -4 10 -9z m-142 -173 c18 -18 15 -28 -8 -28 -13 0 -20
7 -20 20 0 23 10 26 28 8z m-259 -59 c21 -17 22 -22 10 -30 -20 -12 -35 -11
-48 5 -11 13 -6 46 8 46 3 -1 17 -10 30 -21z m151 -589 c0 -5 -4 -10 -10 -10
-5 0 -10 5 -10 10 0 6 5 10 10 10 6 0 10 -4 10 -10z m-35 -20 c4 -6 11 -8 16
-5 5 4 14 -6 19 -21 14 -36 -2 -54 -28 -31 -20 18 -32 13 -32 -13 0 -19 -20
-38 -68 -66 -29 -16 -34 -17 -42 -4 -26 41 -4 88 53 109 22 9 27 8 27 -4 0 -8
5 -15 10 -15 10 0 14 21 11 48 -2 14 25 16 34 2z m275 -21 c0 -4 -7 -6 -15 -3
-8 4 -15 10 -15 15 0 4 7 6 15 3 8 -4 15 -10 15 -15z m-60 -149 c0 -5 -7 -10
-16 -10 -8 0 -12 5 -9 10 3 6 10 10 16 10 5 0 9 -4 9 -10z"/>
<path d="M8126 2434 c-11 -7 -16 -17 -13 -21 4 -4 15 1 24 10 22 21 14 30 -11
11z"/>
<path d="M8594 1875 c-1 -14 1 -23 5 -21 3 1 15 6 26 10 20 7 20 8 1 22 -27
19 -31 18 -32 -11z"/>
<path d="M9296 2631 c5 -4 30 -11 57 -15 38 -4 47 -3 47 9 0 12 -13 15 -57 15
-33 0 -53 -4 -47 -9z"/>
<path d="M9468 2633 c-15 -4 -32 -46 -27 -69 5 -31 -2 -36 -38 -29 -34 6 -36
5 -19 -8 14 -10 16 -16 7 -22 -7 -4 -22 2 -37 16 -13 12 -24 19 -24 14 0 -4
-9 0 -19 9 -10 10 -21 13 -22 8 -2 -4 -15 -5 -29 -1 -25 7 -25 7 -2 8 31 1 18
21 -14 21 l-24 0 0 -133 c0 -133 0 -134 25 -145 14 -6 33 -9 42 -6 16 5 16 4
2 -8 -9 -7 -14 -19 -12 -25 5 -15 -23 -17 -32 -3 -19 31 -25 -4 -25 -145 0
-85 3 -155 8 -155 4 0 26 7 50 15 24 9 47 13 52 10 4 -3 10 1 13 8 7 19 -4 67
-15 67 -5 0 -7 4 -3 10 3 6 15 6 29 0 13 -5 27 -6 30 -3 3 4 6 -1 6 -11 0 -9
7 -19 15 -22 8 -4 15 -18 15 -34 0 -16 6 -30 13 -33 6 -2 9 -8 5 -12 -4 -4
-14 -2 -23 5 -20 17 -20 -4 1 -24 8 -9 20 -16 25 -16 18 0 8 -26 -20 -53 -36
-33 -39 -33 -51 -1 l-10 25 -30 -21 c-16 -11 -32 -25 -35 -30 -4 -6 -22 -10
-41 -10 l-34 0 0 -355 c0 -295 2 -355 14 -355 12 0 12 -6 0 -38 -16 -45 -18
-149 -3 -154 7 -2 7 -12 0 -31 -6 -16 -11 -42 -11 -58 l0 -29 103 1 c96 0 101
1 80 16 -13 8 -23 20 -23 25 0 16 62 0 85 -22 21 -19 33 -20 305 -18 l283 3 3
23 c2 12 -1 22 -7 22 -6 0 -8 7 -5 16 4 9 0 25 -9 34 -14 15 -13 18 4 34 19
17 21 17 42 -3 13 -12 26 -21 31 -21 4 0 8 -7 8 -16 0 -8 3 -13 8 -11 4 3 6
66 4 141 l-3 136 -144 0 -144 0 3 -27 c2 -15 8 -29 14 -31 16 -5 3 -32 -15
-32 -24 0 -67 50 -54 63 18 18 13 25 -16 29 l-28 3 -3 169 c-2 167 -3 169 -22
151 -26 -23 -26 -1 -1 24 11 11 21 27 23 38 3 16 17 18 171 21 l167 2 -2 173
-3 172 -28 3 c-22 3 -30 -1 -34 -17 -7 -28 -46 -28 -74 0 -12 12 -30 19 -46
17 -22 -2 -27 -8 -27 -34 0 -16 4 -35 8 -42 11 -18 -2 -49 -23 -55 -30 -7 -64
15 -83 54 -9 19 -34 48 -56 63 -56 38 -59 59 -11 80 l39 17 0 100 c0 85 -2 99
-16 99 -13 0 -14 3 -4 15 14 17 5 36 -15 28 -26 -10 -16 21 15 46 17 13 30 32
30 42 0 11 5 19 10 19 11 0 14 -7 24 -52 l6 -28 155 0 155 0 0 164 c0 98 -4
167 -10 171 -5 3 -7 0 -4 -8 3 -8 1 -18 -4 -21 -5 -3 -12 8 -16 24 l-5 30
-288 -1 c-159 -1 -296 -3 -305 -6z m590 -98 c-1 -19 -3 -35 -4 -35 -8 0 -32
58 -27 64 18 17 32 4 31 -29z m32 -59 c0 -15 -18 -31 -26 -23 -7 7 7 37 17 37
5 0 9 -6 9 -14z m-696 -20 c9 3 16 10 16 15 0 5 4 9 9 9 5 0 9 -12 9 -26 0
-14 4 -30 10 -36 14 -14 46 -2 36 13 -4 8 -3 9 4 5 17 -10 15 -36 -3 -36 -8 0
-15 -4 -15 -10 0 -5 5 -10 11 -10 6 0 3 -7 -5 -16 -9 -8 -16 -22 -16 -31 0
-11 -6 -14 -22 -9 -13 4 -45 7 -73 8 -27 0 -54 3 -58 5 -5 3 8 20 27 39 40 39
40 38 26 65 -15 26 -1 48 15 25 7 -9 19 -14 29 -10z m249 -8 c17 -14 14 -58
-5 -58 -5 0 -6 -9 -3 -20 4 -13 2 -20 -7 -20 -33 1 -60 46 -44 75 20 36 34 41
59 23z m63 -38 c8 0 12 -4 9 -10 -10 -17 -32 -11 -38 9 -3 11 -2 23 2 26 3 4
7 0 9 -9 2 -9 10 -16 18 -16z m-416 -262 c11 -12 20 -25 20 -28 0 -15 -13 -18
-26 -7 -7 7 -20 18 -29 25 -8 7 -15 17 -15 22 0 18 29 11 50 -12z m198 -246
c2 -7 -3 -12 -12 -12 -9 0 -16 7 -16 16 0 17 22 14 28 -4z m487 -72 c17 -33
19 -50 6 -50 -15 0 -41 48 -35 64 8 22 11 20 29 -14z m58 -13 c-3 -5 -10 -4
-15 1 -6 6 -7 16 -3 22 6 9 9 9 16 -1 4 -7 5 -17 2 -22z m-738 -170 c-4 -8
-12 -18 -20 -20 -10 -4 -10 0 -2 24 6 16 15 25 19 21 5 -5 6 -16 3 -25z m212
-93 c-3 -3 -12 -4 -19 -1 -8 3 -5 6 6 6 11 1 17 -2 13 -5z m-90 -185 c8 -8 17
-8 32 1 27 14 61 4 61 -18 0 -21 -39 -62 -59 -62 -24 1 -95 65 -87 79 9 14 39
14 53 0z m-54 -174 c11 5 16 0 19 -17 3 -21 8 -23 58 -24 78 -1 83 -2 76 -19
-3 -8 -1 -15 4 -15 5 0 12 -10 15 -21 6 -17 9 -19 16 -8 8 12 10 12 18 -1 11
-17 5 -30 -13 -30 -8 0 -16 -10 -19 -21 -3 -12 -11 -19 -19 -17 -49 19 -56 18
-61 -2 -3 -12 -11 -20 -19 -19 -7 1 -25 -1 -40 -5 -22 -7 -28 -14 -28 -36 0
-47 -10 -60 -44 -60 -52 0 -74 10 -81 37 -4 19 2 33 30 64 19 21 35 43 35 49
0 5 11 12 25 16 18 4 23 10 16 18 -12 15 3 41 18 32 17 -11 13 20 -4 34 -8 7
-12 17 -9 24 3 6 -3 0 -14 -14 -11 -13 -19 -27 -17 -30 2 -3 -5 -7 -16 -7 -11
-1 -23 5 -26 12 -6 17 49 79 57 64 4 -5 14 -7 23 -4z m-43 -95 c0 -5 -2 -10
-4 -10 -3 0 -8 5 -11 10 -3 6 -1 10 4 10 6 0 11 -4 11 -10z m615 -39 c3 -5 1
-12 -5 -16 -5 -3 -10 1 -10 9 0 18 6 21 15 7z"/>
<path d="M9380 2399 c0 -5 5 -7 10 -4 6 3 10 8 10 11 0 2 -4 4 -10 4 -5 0 -10
-5 -10 -11z"/>
<path d="M9404 1079 c-3 -6 -2 -15 4 -21 6 -6 11 -2 15 11 5 22 -7 29 -19 10z"/>
<path d="M9220 2621 c0 -6 3 -10 8 -9 4 1 20 -6 35 -16 31 -21 48 -15 24 8
-19 20 -67 32 -67 17z"/>
<path d="M9310 2570 c0 -5 5 -10 10 -10 6 0 10 5 10 10 0 6 -4 10 -10 10 -5 0
-10 -4 -10 -10z"/>
<path d="M5294 2549 c-3 -6 -2 -15 2 -19 12 -12 38 5 30 19 -9 14 -23 14 -32
0z"/>
<path d="M670 2293 c0 -38 3 -73 6 -76 9 -9 64 25 64 39 0 6 7 25 16 43 20 40
11 51 -45 58 l-41 6 0 -70z"/>
<path d="M726 2198 c-24 -34 -20 -58 9 -58 29 0 40 19 31 55 -8 31 -20 32 -40
3z"/>
<path d="M670 2111 c0 -38 4 -61 13 -64 10 -4 10 -6 0 -6 -7 -1 -13 -12 -13
-26 0 -19 5 -25 22 -25 l22 0 -21 -15 c-21 -15 -22 -22 -22 -232 -1 -185 1
-220 16 -242 9 -14 22 -30 30 -34 21 -13 15 -25 -17 -32 -27 -6 -29 -9 -28
-53 0 -26 4 -52 10 -59 6 -7 5 -14 -2 -18 -16 -10 -14 -687 3 -728 22 -50 65
-96 118 -122 l48 -25 796 0 c781 0 796 0 790 19 -4 14 0 21 15 26 13 4 20 13
18 23 -3 16 -41 17 -421 20 l-417 2 -10 -25 c-12 -31 -17 -31 -40 -3 -18 23
-21 23 -337 28 -355 6 -346 4 -416 79 -21 23 -42 41 -46 41 -4 0 -13 11 -19
25 -6 14 -20 25 -29 26 -14 0 -15 2 -3 6 36 14 39 35 39 228 0 152 -3 194 -14
209 -19 25 -19 50 0 66 12 10 14 50 14 229 0 197 -1 220 -19 249 -11 18 -23
32 -27 32 -5 0 -8 11 -8 25 0 21 5 25 28 25 22 0 27 4 27 26 0 18 -6 28 -20
31 -21 6 -21 6 -1 20 19 13 20 24 18 151 l-2 137 -29 3 c-18 2 -30 11 -33 23
-3 10 -12 19 -19 19 -10 0 -14 -15 -14 -59z"/>
<path d="M9830 1885 c0 -8 5 -15 10 -15 6 0 10 7 10 15 0 8 -4 15 -10 15 -5 0
-10 -7 -10 -15z"/>
<path d="M12070 1145 c0 -101 5 -109 51 -85 16 9 19 22 19 86 0 71 -1 75 -26
84 -14 6 -30 10 -35 10 -5 0 -9 -43 -9 -95z"/>
<path d="M8250 1209 c0 -11 5 -17 10 -14 6 3 10 13 10 21 0 8 -4 14 -10 14 -5
0 -10 -9 -10 -21z"/>
<path d="M8361 1202 c-8 -16 -7 -25 7 -42 19 -23 52 -19 52 7 0 10 6 12 20 8
24 -7 25 2 4 30 -13 17 -17 18 -36 6 -16 -10 -22 -10 -28 -1 -6 9 -11 7 -19
-8z"/>
<path d="M8250 1136 c0 -9 5 -16 10 -16 6 0 10 4 10 9 0 6 -4 13 -10 16 -5 3
-10 -1 -10 -9z"/>
<path d="M7860 1130 c0 -5 5 -10 10 -10 6 0 10 5 10 10 0 6 -4 10 -10 10 -5 0
-10 -4 -10 -10z"/>
<path d="M12070 841 c0 -106 -12 -149 -57 -209 -48 -64 -151 -110 -257 -117
-68 -4 -66 -3 -66 -20 0 -8 -4 -15 -10 -15 -5 0 -10 6 -10 14 0 8 -7 17 -16
20 -25 10 -1987 7 -2003 -3 -27 -17 -2 -47 52 -64 49 -16 152 -17 1156 -17
l1102 0 48 25 c53 26 96 72 118 122 9 23 13 82 13 198 l0 165 -35 0 -35 0 0
-99z"/>
<path d="M3270 830 c0 -5 7 -10 15 -10 8 0 15 5 15 10 0 6 -7 10 -15 10 -8 0
-15 -4 -15 -10z"/>
<path d="M2501 506 c-12 -14 -5 -26 16 -26 15 0 18 26 4 34 -5 3 -14 0 -20 -8z"/>
<path d="M2567 514 c-13 -14 -7 -51 12 -68 16 -14 45 -16 229 -16 117 1 214 5
217 10 3 5 -1 15 -9 22 -8 8 -16 23 -18 34 -3 17 -13 19 -123 19 l-120 0 0
-25 c0 -22 -4 -25 -35 -25 -30 0 -35 3 -35 25 0 23 -4 25 -55 28 -31 2 -59 0
-63 -4z"/>
<path d="M3094 506 c-3 -8 -4 -27 -2 -43 l3 -28 665 0 665 0 73 24 c54 18 72
28 70 40 -3 14 -74 16 -736 18 -624 3 -733 1 -738 -11z"/>
<path d="M4691 511 c-8 -6 -10 -19 -6 -45 l7 -36 748 0 c466 0 758 4 775 10
20 8 24 13 16 27 -5 10 -12 26 -15 36 -5 16 -47 17 -759 17 -414 -1 -759 -5
-766 -9z"/>
<path d="M6245 510 c-11 -18 6 -55 32 -67 31 -15 209 -18 218 -4 3 6 -9 26
-26 45 l-31 36 -93 0 c-52 0 -96 -4 -100 -10z"/>
<path d="M6625 491 c-34 -66 -96 -61 779 -61 437 0 797 3 800 8 2 4 1 23 -3
42 l-7 35 -777 3 -776 2 -16 -29z"/>
<path d="M8246 512 c-2 -4 -7 -24 -11 -45 l-7 -37 116 0 c129 0 136 4 94 60
-21 29 -24 30 -104 30 -46 0 -85 -3 -88 -8z"/>
<path d="M8552 504 c-6 -11 -5 -27 2 -45 l10 -29 156 0 c97 0 160 4 167 11 6
6 7 24 4 42 l-7 32 -161 3 c-142 2 -163 0 -171 -14z"/>
<path d="M8999 508 c-1 -7 -1 -18 0 -25 1 -6 -11 -13 -26 -15 -17 -2 -29 -10
-31 -20 -3 -17 15 -18 279 -18 265 0 286 1 328 21 71 32 76 35 76 50 0 20
-624 26 -626 7z"/>
<path d="M8036 383 c-10 -11 -7 -23 7 -23 9 0 11 -17 9 -61 -4 -56 -7 -65 -39
-94 -20 -18 -33 -38 -29 -44 5 -8 103 -11 332 -11 l325 0 8 22 c9 25 -5 67
-32 99 -10 11 -17 28 -17 39 0 22 -18 60 -35 73 -20 15 -71 -2 -110 -37 -42
-39 -60 -44 -68 -22 -3 8 2 16 15 19 12 4 18 12 16 24 -3 17 -18 18 -190 20
-102 1 -189 -1 -192 -4z"/>
<path d="M558 196 c-36 -27 -9 -53 38 -36 16 7 24 16 22 28 -4 21 -37 26 -60
8z"/>
</g>
</svg>
